<?xml version="1.0" encoding="UTF-8"?>
<svg xmlns="http://www.w3.org/2000/svg" xmlns:xlink="http://www.w3.org/1999/xlink" width="18pt" height="18pt" viewBox="0 0 18 18" version="1.1">
<g id="surface1">
<path style=" stroke:none;fill-rule:nonzero;fill:rgb(65.490196%,65.490196%,65.490196%);fill-opacity:1;" d="M 10.6875 13.464844 C 10.6875 14.878906 10.683594 16.289062 10.691406 17.703125 C 10.691406 17.855469 10.648438 17.898438 10.492188 17.894531 C 9.292969 17.886719 8.09375 17.886719 6.890625 17.894531 C 6.726562 17.894531 6.671875 17.855469 6.671875 17.683594 C 6.679688 14.882812 6.675781 12.082031 6.675781 9.28125 C 6.675781 9 6.707031 9.035156 6.417969 9.03125 C 5.910156 9.03125 5.398438 9.027344 4.890625 9.035156 C 4.765625 9.035156 4.730469 8.996094 4.730469 8.875 C 4.734375 7.984375 4.734375 7.089844 4.730469 6.203125 C 4.730469 6.078125 4.765625 6.039062 4.890625 6.042969 C 5.425781 6.050781 5.957031 6.039062 6.488281 6.050781 C 6.632812 6.054688 6.679688 6.015625 6.679688 5.863281 C 6.671875 5.113281 6.679688 4.363281 6.675781 3.613281 C 6.671875 2.992188 6.765625 2.390625 7.082031 1.84375 C 7.417969 1.246094 7.925781 0.832031 8.550781 0.566406 C 9.078125 0.339844 9.632812 0.234375 10.203125 0.203125 C 11.332031 0.140625 12.460938 0.191406 13.589844 0.171875 C 13.71875 0.167969 13.75 0.214844 13.75 0.332031 C 13.746094 1.257812 13.746094 2.1875 13.75 3.109375 C 13.75 3.25 13.695312 3.273438 13.574219 3.273438 C 12.921875 3.269531 12.273438 3.269531 11.621094 3.269531 C 11.082031 3.269531 10.691406 3.660156 10.691406 4.195312 C 10.691406 4.746094 10.699219 5.292969 10.6875 5.847656 C 10.683594 6.003906 10.738281 6.042969 10.886719 6.042969 C 11.777344 6.035156 12.671875 6.042969 13.558594 6.035156 C 13.707031 6.035156 13.757812 6.078125 13.738281 6.226562 C 13.6875 6.679688 13.640625 7.132812 13.589844 7.585938 C 13.546875 8.023438 13.46875 8.453125 13.398438 8.886719 C 13.375 9.011719 13.339844 9.039062 13.226562 9.039062 C 12.464844 9.035156 11.703125 9.035156 10.941406 9.039062 C 10.640625 9.039062 10.683594 9 10.683594 9.300781 C 10.6875 10.6875 10.6875 12.078125 10.6875 13.464844 Z M 10.6875 13.464844 "/>
</g>
</svg>
