<?xml version="1.0" encoding="UTF-8"?>
<svg xmlns="http://www.w3.org/2000/svg" xmlns:xlink="http://www.w3.org/1999/xlink" width="16pt" height="16pt" viewBox="0 0 16 16" version="1.1">
<g id="surface1">
<path style=" stroke:none;fill-rule:nonzero;fill:rgb(0%,0%,0%);fill-opacity:1;" d="M 13.398438 2.164062 C 12.640625 2.921875 11.886719 3.671875 11.148438 4.410156 C 10.832031 4.222656 10.523438 4.007812 10.183594 3.851562 C 8.898438 3.257812 7.601562 3.257812 6.320312 3.847656 C 5.121094 4.398438 4.292969 5.316406 3.890625 6.570312 C 3.382812 8.148438 3.648438 9.621094 4.679688 10.925781 C 5.425781 11.871094 6.417969 12.421875 7.617188 12.589844 C 8.507812 12.714844 9.382812 12.617188 10.21875 12.28125 C 11.394531 11.804688 12.136719 10.945312 12.429688 9.703125 C 12.429688 9.683594 12.429688 9.664062 12.433594 9.625 C 11.046875 9.625 9.664062 9.625 8.273438 9.625 C 8.273438 8.617188 8.273438 7.625 8.273438 6.617188 C 8.34375 6.613281 8.410156 6.605469 8.476562 6.605469 C 10.765625 6.605469 13.058594 6.609375 15.351562 6.601562 C 15.527344 6.601562 15.566406 6.679688 15.589844 6.820312 C 15.722656 7.507812 15.75 8.203125 15.679688 8.902344 C 15.601562 9.710938 15.4375 10.492188 15.136719 11.25 C 14.542969 12.753906 13.570312 13.933594 12.179688 14.765625 C 10.539062 15.75 8.757812 16.03125 6.890625 15.710938 C 5.089844 15.402344 3.582031 14.539062 2.375 13.164062 C 1.601562 12.285156 1.0625 11.273438 0.746094 10.140625 C 0.429688 9.007812 0.378906 7.859375 0.570312 6.707031 C 0.800781 5.320312 1.375 4.078125 2.285156 3 C 3.351562 1.738281 4.679688 0.882812 6.28125 0.476562 C 8.242188 -0.015625 10.132812 0.191406 11.925781 1.148438 C 12.457031 1.433594 12.945312 1.773438 13.398438 2.164062 Z M 13.398438 2.164062 "/>
</g>
</svg>
