<?xml version="1.0" encoding="UTF-8"?>
<svg xmlns="http://www.w3.org/2000/svg" xmlns:xlink="http://www.w3.org/1999/xlink" width="16pt" height="16pt" viewBox="0 0 16 16" version="1.1">
<g id="surface1">
<path style=" stroke:none;fill-rule:nonzero;fill:rgb(0%,0%,0%);fill-opacity:1;" d="M 16 15.644531 L 16 9.730469 C 16 6.558594 14.308594 5.085938 12.050781 5.085938 C 10.230469 5.085938 9.414062 6.085938 8.960938 6.789062 L 8.960938 5.328125 L 5.53125 5.328125 C 5.578125 6.296875 5.53125 15.644531 5.53125 15.644531 L 8.960938 15.644531 L 8.960938 9.882812 C 8.960938 9.574219 8.984375 9.265625 9.074219 9.046875 C 9.320312 8.429688 9.886719 7.792969 10.832031 7.792969 C 12.074219 7.792969 12.570312 8.738281 12.570312 10.125 L 12.570312 15.648438 L 16 15.648438 Z M 1.917969 3.917969 C 3.113281 3.917969 3.859375 3.125 3.859375 2.136719 C 3.835938 1.125 3.113281 0.351562 1.941406 0.351562 C 0.765625 0.351562 0 1.121094 0 2.136719 C 0 3.125 0.746094 3.917969 1.894531 3.917969 Z M 3.632812 15.644531 L 3.632812 5.328125 L 0.203125 5.328125 L 0.203125 15.644531 Z M 3.632812 15.644531 "/>
</g>
</svg>
