<?xml version="1.0" encoding="UTF-8"?>
<svg xmlns="http://www.w3.org/2000/svg" xmlns:xlink="http://www.w3.org/1999/xlink" width="13pt" height="16pt" viewBox="0 0 13 16" version="1.1">
<g id="surface1">
<path style=" stroke:none;fill-rule:nonzero;fill:rgb(0%,0%,0%);fill-opacity:1;" d="M 6.804688 0.203125 C 4.199219 0.203125 1.625 2.339844 1.625 5.800781 C 1.625 8 2.628906 9.25 3.238281 9.25 C 3.492188 9.25 3.636719 8.386719 3.636719 8.144531 C 3.636719 7.851562 3.035156 7.234375 3.035156 6.023438 C 3.035156 3.511719 4.589844 1.730469 6.597656 1.730469 C 8.328125 1.730469 9.609375 2.941406 9.609375 5.164062 C 9.609375 6.820312 9.066406 9.933594 7.316406 9.933594 C 6.683594 9.933594 6.140625 9.371094 6.140625 8.566406 C 6.140625 7.382812 6.8125 6.242188 6.8125 5.023438 C 6.8125 2.953125 4.425781 3.328125 4.425781 5.828125 C 4.425781 6.351562 4.480469 6.933594 4.671875 7.414062 C 4.320312 9.269531 3.605469 12.035156 3.605469 13.949219 C 3.605469 14.539062 3.671875 15.121094 3.71875 15.710938 C 3.804688 15.828125 3.761719 15.816406 3.894531 15.757812 C 5.175781 13.601562 5.128906 13.179688 5.707031 10.355469 C 6.019531 11.089844 6.828125 11.480469 7.46875 11.480469 C 10.164062 11.480469 11.375 8.246094 11.375 5.332031 C 11.375 2.230469 9.195312 0.203125 6.804688 0.203125 Z M 6.804688 0.203125 "/>
</g>
</svg>
