<?xml version="1.0" encoding="UTF-8"?>
<svg xmlns="http://www.w3.org/2000/svg" xmlns:xlink="http://www.w3.org/1999/xlink" width="14pt" height="16pt" viewBox="0 0 14 16" version="1.1">
<g id="surface1">
<path style=" stroke:none;fill-rule:evenodd;fill:rgb(0%,66.666667%,92.54902%);fill-opacity:1;" d="M 14 2.910156 C 13.484375 3.179688 12.933594 3.359375 12.351562 3.441406 C 12.945312 3.023438 13.398438 2.367188 13.613281 1.578125 C 13.058594 1.964844 12.445312 2.246094 11.789062 2.394531 C 11.265625 1.742188 10.519531 1.332031 9.691406 1.332031 C 8.105469 1.332031 6.820312 2.839844 6.820312 4.699219 C 6.820312 4.964844 6.847656 5.21875 6.894531 5.464844 C 4.507812 5.324219 2.390625 3.988281 0.972656 1.949219 C 0.726562 2.445312 0.585938 3.023438 0.585938 3.640625 C 0.585938 4.808594 1.09375 5.839844 1.863281 6.441406 C 1.394531 6.425781 0.949219 6.273438 0.5625 6.023438 L 0.5625 6.066406 C 0.5625 7.695312 1.550781 9.058594 2.867188 9.363281 C 2.625 9.445312 2.371094 9.484375 2.109375 9.484375 C 1.925781 9.484375 1.746094 9.464844 1.570312 9.425781 C 1.933594 10.761719 2.996094 11.734375 4.253906 11.761719 C 3.269531 12.664062 2.03125 13.203125 0.683594 13.203125 C 0.453125 13.203125 0.222656 13.1875 0 13.15625 C 1.269531 14.109375 2.78125 14.667969 4.402344 14.667969 C 9.6875 14.667969 12.574219 9.539062 12.574219 5.089844 C 12.574219 4.945312 12.574219 4.796875 12.566406 4.652344 C 13.128906 4.179688 13.617188 3.585938 14 2.910156 "/>
</g>
</svg>
